<?xml version="1.0" encoding="UTF-8" standalone="no"?>
<!DOCTYPE svg PUBLIC "-//W3C//DTD SVG 1.1//EN" "http://www.w3.org/Graphics/SVG/1.1/DTD/svg11.dtd">
<!-- Generated by graphviz version 2.40.1 (20161225.0304)
 -->
<!-- Title: CICD_Pipeline Pages: 1 -->
<svg width="184pt" height="438pt" viewBox="0.00 0.00 184.00 438.40" xmlns="http://www.w3.org/2000/svg" xmlns:xlink="http://www.w3.org/1999/xlink">
<g id="graph0" class="graph" transform="scale(1 1) rotate(0) translate(4 434.4)">
<title>CICD_Pipeline</title>
<polygon fill="#ffffff" stroke="transparent" points="-4,4 -4,-434.4 180,-434.4 180,4 -4,4"/>
<g id="clust1" class="cluster">
<title>cluster_Workspace</title>
<polygon fill="none" stroke="#a020f0" stroke-dasharray="5,2" points="8,-345.6 8,-422.4 168,-422.4 168,-345.6 8,-345.6"/>
<text text-anchor="middle" x="88" y="-405.8" font-family="Times,serif" font-size="14.00" fill="#000000">Workspace</text>
</g>
<g id="clust2" class="cluster">
<title>cluster_GitHub</title>
<polygon fill="none" stroke="#0000ff" stroke-dasharray="5,2" points="8,-183.2 8,-337.6 168,-337.6 168,-183.2 8,-183.2"/>
<text text-anchor="middle" x="88" y="-321" font-family="Times,serif" font-size="14.00" fill="#000000">GitHub</text>
</g>
<g id="clust3" class="cluster">
<title>cluster_DockerHub</title>
<polygon fill="none" stroke="#ffa500" stroke-dasharray="5,2" points="8,-98.4 8,-175.2 168,-175.2 168,-98.4 8,-98.4"/>
<text text-anchor="middle" x="88" y="-158.6" font-family="Times,serif" font-size="14.00" fill="#000000">DockerHub</text>
</g>
<g id="clust4" class="cluster">
<title>cluster_ProdServer</title>
<polygon fill="none" stroke="#ff0000" stroke-dasharray="5,2" points="8,-8 8,-90.4 168,-90.4 168,-8 8,-8"/>
<text text-anchor="middle" x="88" y="-73.8" font-family="Times,serif" font-size="14.00" fill="#000000">Production Server</text>
</g>
<!-- PushToMain -->
<g id="node1" class="node">
<title>PushToMain</title>
<polygon fill="#dda0dd" stroke="#dda0dd" points="160,-389.6 16,-389.6 16,-353.6 160,-353.6 160,-389.6"/>
<text text-anchor="middle" x="88" y="-367.4" font-family="Times,serif" font-size="14.00" fill="#000000">Push to Main</text>
</g>
<!-- CodeCheck -->
<g id="node2" class="node">
<title>CodeCheck</title>
<polygon fill="#add8e6" stroke="#add8e6" points="160,-304.6019 16,-304.6019 16,-263.3981 160,-263.3981 160,-304.6019"/>
<text text-anchor="middle" x="88" y="-288.2" font-family="Times,serif" font-size="14.00" fill="#000000">Code Check &amp; Build</text>
<text text-anchor="middle" x="88" y="-271.4" font-family="Times,serif" font-size="14.00" fill="#000000">(Triggered by Push)</text>
</g>
<!-- PushToMain&#45;&gt;CodeCheck -->
<g id="edge1" class="edge">
<title>PushToMain-&gt;CodeCheck</title>
<path fill="none" stroke="#000000" d="M88,-353.4492C88,-342.4084 88,-328.0103 88,-315.1885"/>
<polygon fill="#000000" stroke="#000000" points="91.5001,-314.8971 88,-304.8972 84.5001,-314.8972 91.5001,-314.8971"/>
</g>
<!-- PushDockerHub -->
<g id="node3" class="node">
<title>PushDockerHub</title>
<polygon fill="#add8e6" stroke="#add8e6" points="160,-227.2 16,-227.2 16,-191.2 160,-191.2 160,-227.2"/>
<text text-anchor="middle" x="88" y="-205" font-family="Times,serif" font-size="14.00" fill="#000000">Push to DockerHub</text>
</g>
<!-- CodeCheck&#45;&gt;PushDockerHub -->
<g id="edge2" class="edge">
<title>CodeCheck-&gt;PushDockerHub</title>
<path fill="none" stroke="#000000" d="M88,-263.164C88,-255.2614 88,-246.1223 88,-237.6373"/>
<polygon fill="#000000" stroke="#000000" points="91.5001,-237.3816 88,-227.3816 84.5001,-237.3816 91.5001,-237.3816"/>
</g>
<!-- StoreImages -->
<g id="node4" class="node">
<title>StoreImages</title>
<polygon fill="#ffff00" stroke="#ffff00" points="160,-142.4 16,-142.4 16,-106.4 160,-106.4 160,-142.4"/>
<text text-anchor="middle" x="88" y="-120.2" font-family="Times,serif" font-size="14.00" fill="#000000">Store Images</text>
</g>
<!-- PushDockerHub&#45;&gt;StoreImages -->
<g id="edge3" class="edge">
<title>PushDockerHub-&gt;StoreImages</title>
<path fill="none" stroke="#000000" d="M88,-190.7997C88,-179.6112 88,-165.0983 88,-152.4954"/>
<polygon fill="#000000" stroke="#000000" points="91.5001,-152.4731 88,-142.4731 84.5001,-152.4731 91.5001,-152.4731"/>
</g>
<!-- PullImages -->
<g id="node5" class="node">
<title>PullImages</title>
<polygon fill="#f08080" stroke="#f08080" points="160,-57.4019 16,-57.4019 16,-16.1981 160,-16.1981 160,-57.4019"/>
<text text-anchor="middle" x="88" y="-41" font-family="Times,serif" font-size="14.00" fill="#000000">Pull &amp; Restart</text>
<text text-anchor="middle" x="88" y="-24.2" font-family="Times,serif" font-size="14.00" fill="#000000">(Every 12 hours)</text>
</g>
<!-- StoreImages&#45;&gt;PullImages -->
<g id="edge4" class="edge">
<title>StoreImages-&gt;PullImages</title>
<path fill="none" stroke="#000000" d="M88,-106.2492C88,-95.2084 88,-80.8103 88,-67.9885"/>
<polygon fill="#000000" stroke="#000000" points="91.5001,-67.6971 88,-57.6972 84.5001,-67.6972 91.5001,-67.6971"/>
</g>
</g>
</svg>